<svg width="43" height="32" viewBox="0 0 43 32" fill="none" xmlns="http://www.w3.org/2000/svg">
<path d="M41.971 24.4604L36.0239 6.05943H36.1958C36.7672 6.05943 37.1679 5.70305 37.1679 5.30194C37.1679 4.85658 36.7103 4.54446 36.1958 4.54446H35.7951C34.7661 3.69799 34.0228 4.67816 34.0228 4.67816H32.3643C26.1321 1.24757 25.3888 4.67816 25.3888 4.67816H23.2157C23.2157 4.67816 23.3301 2.85152 22.5293 2.45042C22.5293 2.45042 22.0717 0.490084 23.959 0.490084H25.0455V0H18.012V0.490084H19.0985C20.9283 0.490084 20.5282 2.45042 20.5282 2.45042C19.7274 2.85152 19.8418 4.67816 19.8418 4.67816H17.6687C17.6687 4.67816 16.9254 1.24757 10.6932 4.67816H9.03472C9.03472 4.67816 8.34832 3.74271 7.2624 4.54446H6.8617C6.29028 4.54446 5.88958 4.9013 5.88958 5.30194C5.88958 5.74777 6.34719 6.05943 6.8617 6.05943H7.03359L1.02961 24.4604H0C0 24.4604 0.343796 28.6932 7.03359 28.6932C13.724 28.6932 14.181 24.4604 14.181 24.4604H13.152L7.2049 6.05943H7.3762C7.94821 6.05943 8.34832 5.70305 8.34832 5.30194C8.34832 4.94556 8.00571 4.6339 7.5481 4.54446C8.00571 4.5002 8.69152 4.54446 8.69152 5.34666H10.6932C10.6932 5.34666 16.0108 2.45042 16.9829 5.34666H19.7849V7.0396H19.2129V7.39598C19.2129 7.93079 20.0706 7.75236 20.0706 7.75236V14.3019C18.6409 16.6191 20.3563 17.5992 20.3563 17.5992V26.1533C19.5561 27.0445 19.4986 28.6932 19.4986 28.6932H18.4127L17.4405 31.5H25.5601L24.5879 28.6932H23.5014C23.5014 28.6932 23.387 27.0445 22.6437 26.1533V17.6435C22.6437 17.6435 24.3022 16.6191 22.9294 14.3466V7.75236C22.9294 7.75236 23.7871 7.88607 23.7871 7.39598V7.0396H23.2157V5.34666H26.0177C26.9898 2.45042 32.3073 5.34666 32.3073 5.34666H34.3085C34.3085 4.54446 34.9949 4.5002 35.4525 4.54446C34.9949 4.6339 34.6517 4.94556 34.6517 5.30194C34.6517 5.74777 35.1093 6.05943 35.6238 6.05943H35.7951L29.8486 24.4604H28.8196C28.8196 24.4604 29.2197 28.6932 35.9095 28.6932C42.5999 28.6932 43 24.4604 43 24.4604H41.971ZM7.0905 24.4604H1.25841L7.0905 6.32683L12.9232 24.4604H7.0905ZM8.17701 5.30194C8.17701 5.65833 7.83381 5.92573 7.3762 5.92573H6.80479C6.34719 5.92573 6.00398 5.65833 6.00398 5.30194C6.00398 4.94556 6.34719 4.67816 6.80479 4.67816H7.3762C7.83381 4.67816 8.17701 4.94556 8.17701 5.30194ZM34.8236 5.30194C34.8236 4.94556 35.1662 4.67816 35.6238 4.67816H36.1958C36.6528 4.67816 36.996 4.94556 36.996 5.30194C36.996 5.65833 36.6528 5.92573 36.1958 5.92573H35.6238C35.1662 5.92573 34.8236 5.65833 34.8236 5.30194ZM30.0774 24.4604L35.9095 6.32683L41.7422 24.4604H30.0774Z" fill="white"/>
</svg>
