<?xml version="1.0" standalone="no"?>
<!DOCTYPE svg PUBLIC "-//W3C//DTD SVG 20010904//EN"
 "http://www.w3.org/TR/2001/REC-SVG-20010904/DTD/svg10.dtd">
<svg version="1.0" xmlns="http://www.w3.org/2000/svg"
 width="4500.000000pt" height="4500.000000pt" viewBox="0 0 4500.000000 4500.000000"
 preserveAspectRatio="xMidYMid meet">

<g transform="translate(0.000000,4500.000000) scale(0.100000,-0.100000)"
fill="#000000" stroke="none">
<path d="M22045 42794 c-684 -20 -1254 -59 -1840 -125 -3926 -441 -7613 -2014
-10670 -4551 -159 -131 -505 -430 -590 -508 -27 -26 -106 -98 -175 -161 -2100
-1920 -3804 -4323 -4932 -6953 -1257 -2930 -1800 -6112 -1592 -9326 294 -4556
2102 -8842 5166 -12248 2432 -2702 5548 -4707 9007 -5793 2652 -833 5486
-1110 8281 -808 3007 324 5891 1314 8470 2909 873 539 1702 1144 2500 1824 91
77 167 143 170 146 3 3 84 75 180 161 2247 1999 4044 4520 5217 7319 1514
3612 1940 7664 1217 11560 -298 1606 -813 3232 -1484 4690 -34 74 -74 160 -87
190 -215 467 -613 1217 -918 1730 -549 921 -1094 1695 -1816 2580 -670 821
-1599 1765 -2449 2491 -2293 1956 -4897 3344 -7770 4142 -1470 409 -2964 644
-4560 717 -229 10 -1125 20 -1325 14z m1100 -1554 c662 -22 1209 -62 1840
-136 4063 -475 7746 -2138 10231 -4619 963 -961 1686 -1957 2230 -3070 532
-1089 832 -2167 941 -3380 26 -289 26 -1160 0 -1455 -131 -1490 -580 -2856
-1375 -4180 -323 -540 -768 -1149 -1194 -1634 -5 -6 -75 58 -171 155 -208 210
-484 470 -712 670 -1532 1344 -3450 2436 -5575 3176 -2968 1032 -6314 1369
-9565 962 -3533 -442 -6761 -1744 -9235 -3725 -402 -322 -720 -605 -1098 -979
-269 -265 -274 -269 -290 -249 -9 12 -83 100 -163 195 -1221 1457 -2012 3121
-2298 4836 -96 574 -126 989 -118 1625 5 452 16 624 63 998 221 1777 965 3481
2190 5014 310 388 533 636 919 1021 293 293 536 518 810 750 1869 1581 4225
2753 6872 3419 1454 365 2924 564 4508 609 252 8 925 6 1190 -3z m-2910
-14561 c-916 -499 -1623 -1235 -2061 -2144 -436 -906 -579 -1908 -414 -2891
129 -764 427 -1463 889 -2083 71 -95 247 -311 270 -331 3 -3 60 -61 126 -130
444 -463 964 -822 1565 -1082 82 -35 125 -58 109 -58 -35 0 -390 35 -609 61
-3525 409 -6746 1722 -9140 3725 -247 206 -690 607 -690 624 0 19 443 419 726
656 2315 1936 5526 3256 8934 3673 298 37 390 48 410 50 8 0 -43 -31 -115 -70z
m4700 35 c1176 -135 2434 -402 3530 -749 116 -37 239 -76 275 -87 91 -29 472
-164 680 -241 1699 -634 3293 -1543 4555 -2596 278 -232 745 -653 745 -672 0
-8 -366 -345 -505 -466 -2266 -1969 -5359 -3315 -8750 -3807 -378 -55 -1090
-137 -1182 -136 -19 0 14 18 97 54 1041 444 1896 1242 2405 2247 274 540 441
1116 501 1729 23 236 23 662 0 900 -158 1612 -1087 3012 -2511 3785 -117 63
-133 75 -100 70 22 -3 139 -17 260 -31z m-4211 -1722 c-55 -137 -99 -305 -120
-466 -19 -144 -14 -433 9 -561 104 -558 413 -1017 880 -1307 236 -147 535
-249 816 -277 784 -81 1544 337 1898 1043 133 265 191 498 200 801 9 316 -41
568 -174 874 -7 16 110 -66 237 -167 125 -100 364 -340 472 -476 468 -586 709
-1308 685 -2051 -22 -684 -244 -1293 -671 -1845 -103 -133 -358 -390 -500
-502 -1069 -852 -2554 -919 -3686 -165 -720 479 -1215 1239 -1354 2080 -134
809 35 1596 487 2272 194 291 482 588 772 797 50 36 91 65 92 64 1 -1 -18 -52
-43 -114z m-11270 -3270 c1412 -1396 3174 -2538 5213 -3377 2785 -1148 5971
-1655 9173 -1460 4635 283 8876 2035 11708 4839 224 222 264 258 275 246 56
-62 254 -301 348 -420 515 -650 912 -1273 1254 -1965 504 -1021 814 -2066 934
-3150 41 -370 46 -480 46 -1000 0 -520 -5 -629 -46 -1000 -194 -1760 -905
-3458 -2088 -4990 -591 -765 -1347 -1528 -2151 -2170 -1597 -1276 -3500 -2258
-5640 -2911 -3649 -1114 -7804 -1162 -11500 -134 -1150 320 -2214 725 -3235
1231 -2676 1325 -4766 3230 -5977 5449 -660 1209 -1033 2435 -1155 3795 -22
251 -26 1161 -5 1395 34 385 73 683 127 980 210 1131 623 2209 1248 3255 214
358 563 860 845 1215 126 159 354 430 361 430 3 0 122 -116 265 -258z"/>
</g>
</svg>
