<svg width="73" height="163" viewBox="0 0 73 163" fill="none" xmlns="http://www.w3.org/2000/svg">
<path d="M70.6841 7.77589C70.6841 7.77589 37.2748 -6.82167 2.24638 7.77589L10.3492 15.3588C10.3492 15.3588 32.3196 7.77589 62.5743 15.3588L70.6841 7.77589Z" fill="#231F1F"/>
<path d="M70.684 7.77568L70.3106 8.55657L70.3001 8.55325C69.9163 8.38378 55.3194 2.14334 35.5579 2.14666C25.5183 2.14666 14.1527 3.75163 2.60571 8.56321L2.24628 7.77568L2.8779 7.16427L10.9842 14.7472L10.3491 15.3586L10.042 14.5544C10.1153 14.5279 19.9804 11.1318 35.5893 11.1318C43.3955 11.1318 52.6394 11.9792 62.8045 14.5312L62.5742 15.3586L61.9461 14.7472L70.0524 7.16427L70.684 7.77568L70.3106 8.55657L70.684 7.77568L71.3156 8.3871L63.2128 15.97C62.9825 16.186 62.658 16.2657 62.3509 16.1893C52.3462 13.6805 43.2594 12.8465 35.5893 12.8465C27.9192 12.8465 21.6693 13.6805 17.3492 14.5146C15.1857 14.9332 13.5037 15.3486 12.3696 15.6576C11.8008 15.8138 11.3681 15.9401 11.0784 16.0331C10.9353 16.0763 10.8307 16.1096 10.7574 16.1328L10.6771 16.1594L10.6597 16.166C10.3316 16.279 9.96873 16.2026 9.71748 15.97L1.61467 8.3871C1.40181 8.18772 1.3041 7.90195 1.35993 7.61951C1.41228 7.34038 1.61118 7.10113 1.88686 6.98815C13.6956 2.06691 25.3194 0.428711 35.5579 0.428711C56.0417 0.432034 70.9911 6.96821 71.0574 6.9948C71.3261 7.1111 71.5215 7.35035 71.5704 7.62615C71.6192 7.90528 71.525 8.19105 71.3156 8.3871L70.684 7.77568Z" fill="#231F1F"/>
<path d="M49.5058 39.5064L68.0704 26.5404C68.0704 26.5404 72.701 17.4921 70.6841 7.77588L50.6294 26.5404L49.5058 39.5064Z" fill="#231F1F"/>
<path d="M49.5057 39.5065L48.9718 38.812L67.5364 25.8493L68.0703 26.5404L67.2572 26.1649V26.1616C67.327 26.042 70.3001 20.0973 70.2896 12.8766C70.2896 11.2783 70.1466 9.61683 69.8011 7.94208L70.684 7.77593L71.3156 8.38735L51.5017 26.9292L50.4025 39.5762L49.5057 39.5065L48.9718 38.812L49.5057 39.5065L48.6054 39.4334L49.7325 26.4673C49.7499 26.2646 49.8442 26.0719 49.9977 25.929L70.0523 7.16452C70.2861 6.94188 70.6351 6.86213 70.9492 6.95517C71.2632 7.04821 71.504 7.30076 71.5668 7.60979C71.9402 9.40748 72.0938 11.1786 72.0938 12.8766C72.0903 20.6622 68.9078 26.8528 68.8798 26.9159C68.8135 27.0422 68.7228 27.1485 68.6007 27.2316L50.0396 40.1976C49.7534 40.3937 49.3731 40.4169 49.066 40.2541C48.7589 40.0913 48.5774 39.769 48.6054 39.4334L49.5057 39.5065Z" fill="#231F1F"/>
<path d="M23.4209 39.5064L4.85981 26.5404C4.85981 26.5404 0.225643 17.4921 2.24611 7.77588L22.3007 26.5404L23.4209 39.5064Z" fill="#231F1F"/>
<path d="M23.4211 39.5065L22.8907 40.1976L4.32962 27.2316C4.20748 27.1485 4.11675 27.0422 4.05045 26.9159C4.02254 26.8528 0.843527 20.6622 0.836548 12.8766C0.836548 11.1819 0.990089 9.40748 1.36347 7.60979C1.42629 7.30076 1.66358 7.04821 1.98113 6.95517C2.29519 6.86213 2.64415 6.94188 2.87795 7.16452L22.9326 25.929C23.0861 26.0719 23.1803 26.2646 23.1978 26.4673L24.3249 39.4334C24.3493 39.769 24.1714 40.0913 23.8643 40.2541C23.5572 40.4169 23.1734 40.3937 22.8907 40.1976L23.4211 39.5065L22.5243 39.5762L21.4321 26.9292L1.61473 8.38735L2.24634 7.77593L3.1292 7.94208C2.78373 9.62015 2.63717 11.2783 2.63717 12.8766C2.63717 16.5451 3.40139 19.8846 4.16212 22.2971C4.54597 23.5033 4.92285 24.4769 5.2055 25.1448C5.35207 25.4804 5.46722 25.7396 5.55097 25.9124C5.58936 25.9988 5.62076 26.0619 5.63821 26.1051L5.66264 26.1517L5.66962 26.1616V26.1649L4.86003 26.5404L5.39045 25.8493L23.9585 38.812L23.4211 39.5065L22.5243 39.5762L23.4211 39.5065Z" fill="#231F1F"/>
<path d="M27.9123 50.9971H44.0342C44.0342 50.9971 53.1839 95.1354 51.2018 138.061C51.2018 138.061 50.8982 147.631 35.9733 161.853C21.0448 147.631 20.7447 138.061 20.7447 138.061C18.7626 95.1354 27.9123 50.9971 27.9123 50.9971Z" fill="#231F1F"/>
<path d="M27.9119 50.997V50.1396H44.0338C44.463 50.1396 44.8364 50.4287 44.9201 50.8308C44.9236 50.8607 52.3809 86.828 52.3809 125.483C52.3809 129.67 52.2971 133.89 52.1017 138.101L51.2014 138.061L52.1017 138.087C52.0982 138.19 51.997 140.696 50.0079 144.969C48.0189 149.246 44.142 155.283 36.6079 162.458C36.4404 162.62 36.2136 162.71 35.9728 162.71C35.7286 162.71 35.5052 162.62 35.3343 162.458C27.8037 155.283 23.9233 149.246 21.9343 144.969C19.9487 140.696 19.844 138.19 19.844 138.087L20.7443 138.061L19.844 138.101C19.6486 133.89 19.5613 129.67 19.5613 125.483C19.5648 86.828 27.0221 50.8607 27.029 50.8308C27.1093 50.4321 27.4792 50.1396 27.9119 50.1396V50.997L28.7948 51.1664C28.7948 51.1664 28.7669 51.2993 28.7145 51.5751C27.898 55.6291 21.362 89.4365 21.362 125.483C21.362 129.65 21.4527 133.844 21.6481 138.024V138.034L21.3899 138.044L21.6481 138.031V138.034L21.3899 138.044L21.6481 138.031C21.6481 138.077 21.7563 140.41 23.6756 144.467C25.5948 148.525 29.3322 154.31 36.6079 161.248L35.9728 161.853L35.3343 161.248C42.7287 154.2 46.4695 148.342 48.3609 144.275C49.3065 142.241 49.7916 140.659 50.0428 139.593C50.165 139.061 50.2313 138.659 50.2627 138.396C50.2801 138.263 50.2906 138.167 50.2941 138.107L50.3011 138.044V138.031L50.5523 138.044L50.3011 138.034V138.031L50.5523 138.044L50.3011 138.034V138.024C50.493 133.844 50.5802 129.65 50.5802 125.483C50.5837 106.257 48.7238 87.6687 46.8638 73.8919C45.9321 67.0068 45.0039 61.3179 44.3095 57.357C43.964 55.3766 43.6709 53.8281 43.4685 52.7714C43.3638 52.2431 43.287 51.841 43.2347 51.5751C43.1788 51.2993 43.1474 51.1664 43.1474 51.1664L44.0338 50.997V51.8576H27.9119V50.997L28.7948 51.1664L27.9119 50.997Z" fill="#231F1F"/>
<path d="M21.317 26.54H50.6295C53.0094 40.5262 43.947 50.9967 43.947 50.9967H28.0031C28.0031 50.9967 18.9371 40.5262 21.317 26.54Z" fill="#231F1F"/>
<path d="M21.3166 26.5403V25.6797H50.6291C51.0758 25.6797 51.4492 25.9854 51.5225 26.4041C51.8051 28.0722 51.9272 29.6938 51.9272 31.2522C51.9272 37.2002 50.1092 42.261 48.2981 45.8365C46.4835 49.412 44.6724 51.5054 44.641 51.542C44.4665 51.7413 44.2153 51.8576 43.9466 51.8576H28.0027C27.7305 51.8576 27.4792 51.7413 27.3082 51.542C27.2698 51.5054 25.4587 49.412 23.6477 45.8365C21.8366 42.261 20.0185 37.2002 20.015 31.2555C20.015 29.6938 20.1406 28.0722 20.4268 26.4041C20.4966 25.9854 20.8699 25.6797 21.3166 25.6797V26.5403L22.2065 26.6766C21.9412 28.2516 21.8191 29.7802 21.8191 31.2555C21.8191 36.868 23.543 41.6762 25.2703 45.0889C26.1357 46.7935 27.0011 48.1393 27.6467 49.0631C27.9643 49.5216 28.2365 49.8739 28.4214 50.1098C28.5086 50.2261 28.5819 50.3158 28.6308 50.3723L28.6831 50.4354L28.6936 50.4487V50.452L28.0027 50.997V50.1397H43.9466V50.997L43.2452 50.452L43.2521 50.4487C43.3219 50.3623 45.0528 48.3254 46.7522 44.926C48.4551 41.5267 50.1266 36.7782 50.1231 31.2522C50.1231 29.7802 50.008 28.2516 49.7393 26.6766L50.6291 26.5403V27.3976H21.3166V26.5403L22.2065 26.6766L21.3166 26.5403Z" fill="#231F1F"/>
<path d="M21.317 26.54H50.6295C53.0094 40.5262 43.947 50.9967 43.947 50.9967H28.0031C28.0031 50.9967 18.9371 40.5262 21.317 26.54Z" fill="#231F1F"/>
<path d="M21.3166 26.5403V25.6797H50.6291C51.0758 25.6797 51.4492 25.9854 51.5225 26.4041C51.8051 28.0722 51.9272 29.6938 51.9272 31.2522C51.9272 37.2002 50.1092 42.261 48.2981 45.8365C46.4835 49.412 44.6724 51.5054 44.641 51.542C44.4665 51.7413 44.2153 51.8576 43.9466 51.8576H28.0027C27.7305 51.8576 27.4792 51.7413 27.3082 51.542C27.2698 51.5054 25.4587 49.412 23.6477 45.8365C21.8366 42.261 20.0185 37.2002 20.015 31.2555C20.015 29.6938 20.1406 28.0722 20.4268 26.4041C20.4966 25.9854 20.8699 25.6797 21.3166 25.6797V26.5403L22.2065 26.6766C21.9412 28.2516 21.8191 29.7802 21.8191 31.2555C21.8191 36.868 23.543 41.6762 25.2703 45.0889C26.1357 46.7935 27.0011 48.1393 27.6467 49.0631C27.9643 49.5216 28.2365 49.8739 28.4214 50.1098C28.5086 50.2261 28.5819 50.3158 28.6308 50.3723L28.6831 50.4354L28.6936 50.4487V50.452L28.0027 50.997V50.1397H43.9466V50.997L43.2452 50.452L43.2521 50.4487C43.3219 50.3623 45.0528 48.3254 46.7522 44.926C48.4551 41.5267 50.1266 36.7782 50.1231 31.2522C50.1231 29.7802 50.008 28.2516 49.7393 26.6766L50.6291 26.5403V27.3976H21.3166V26.5403L22.2065 26.6766L21.3166 26.5403Z" fill="#231F1F"/>
<path d="M27.9123 50.9971H44.0342C44.0342 50.9971 53.1839 95.1354 51.2018 138.061C51.2018 138.061 50.8982 147.631 35.9733 161.853C21.0448 147.631 20.7447 138.061 20.7447 138.061C18.7626 95.1354 27.9123 50.9971 27.9123 50.9971Z" fill="#231F1F"/>
<path d="M27.9119 50.997V50.1396H44.0338C44.463 50.1396 44.8364 50.4287 44.9201 50.8308C44.9236 50.8607 52.3809 86.828 52.3809 125.483C52.3809 129.67 52.2971 133.89 52.1017 138.101L51.2014 138.061L52.1017 138.087C52.0982 138.19 51.997 140.696 50.0079 144.969C48.0189 149.246 44.142 155.283 36.6079 162.458C36.4404 162.62 36.2136 162.71 35.9728 162.71C35.7286 162.71 35.5052 162.62 35.3343 162.458C27.8037 155.283 23.9233 149.246 21.9343 144.969C19.9487 140.696 19.844 138.19 19.844 138.087L20.7443 138.061L19.844 138.101C19.6486 133.89 19.5613 129.67 19.5613 125.483C19.5648 86.828 27.0221 50.8607 27.029 50.8308C27.1093 50.4321 27.4792 50.1396 27.9119 50.1396V50.997L28.7948 51.1664C28.7948 51.1664 28.7669 51.2993 28.7145 51.5751C27.898 55.6291 21.362 89.4365 21.362 125.483C21.362 129.65 21.4527 133.844 21.6481 138.024V138.034L21.3899 138.044L21.6481 138.031V138.034L21.3899 138.044L21.6481 138.031C21.6481 138.077 21.7563 140.41 23.6756 144.467C25.5948 148.525 29.3322 154.31 36.6079 161.248L35.9728 161.853L35.3343 161.248C42.7287 154.2 46.4695 148.342 48.3609 144.275C49.3065 142.241 49.7916 140.659 50.0428 139.593C50.165 139.061 50.2313 138.659 50.2627 138.396C50.2801 138.263 50.2906 138.167 50.2941 138.107L50.3011 138.044V138.031L50.5523 138.044L50.3011 138.034V138.031L50.5523 138.044L50.3011 138.034V138.024C50.493 133.844 50.5802 129.65 50.5802 125.483C50.5837 106.257 48.7238 87.6687 46.8638 73.8919C45.9321 67.0068 45.0039 61.3179 44.3095 57.357C43.964 55.3766 43.6709 53.8281 43.4685 52.7714C43.3638 52.2431 43.287 51.841 43.2347 51.5751C43.1788 51.2993 43.1474 51.1664 43.1474 51.1664L44.0338 50.997V51.8576H27.9119V50.997L28.7948 51.1664L27.9119 50.997Z" fill="#231F1F"/>
</svg>
