<svg width="28" height="28" viewBox="0 0 28 28" fill="none" xmlns="http://www.w3.org/2000/svg">
<path fill-rule="evenodd" clip-rule="evenodd" d="M8.70919 1.24363C10.0777 1.18063 10.514 1.16663 14 1.16663C17.486 1.16663 17.9224 1.18179 19.2897 1.24363C20.657 1.30546 21.5904 1.52363 22.407 1.83979C23.2622 2.16296 24.038 2.66813 24.6797 3.32146C25.333 3.96196 25.837 4.73663 26.159 5.59296C26.4764 6.40963 26.6933 7.34296 26.7563 8.70796C26.8193 10.0788 26.8334 10.5151 26.8334 14C26.8334 17.486 26.8182 17.9223 26.7563 19.2908C26.6945 20.6558 26.4764 21.5891 26.159 22.4058C25.837 23.2622 25.3322 24.0382 24.6797 24.6796C24.038 25.333 23.2622 25.837 22.407 26.159C21.5904 26.4763 20.657 26.6933 19.292 26.7563C17.9223 26.8193 17.486 26.8333 14 26.8333C10.514 26.8333 10.0777 26.8181 8.70919 26.7563C7.34419 26.6945 6.41085 26.4763 5.59419 26.159C4.73776 25.8369 3.96181 25.3321 3.32035 24.6796C2.66746 24.0387 2.16222 23.2632 1.83985 22.407C1.52369 21.5903 1.30669 20.657 1.24369 19.292C1.18069 17.9211 1.16669 17.4848 1.16669 14C1.16669 10.514 1.18185 10.0776 1.24369 8.71029C1.30552 7.34296 1.52369 6.40963 1.83985 5.59296C2.1627 4.73672 2.66833 3.96116 3.32152 3.32029C3.96207 2.66754 4.73724 2.16231 5.59302 1.83979C6.40969 1.52363 7.34302 1.30663 8.70802 1.24363H8.70919ZM19.1859 3.55363C17.8325 3.49179 17.4265 3.47896 14 3.47896C10.5735 3.47896 10.1675 3.49179 8.81419 3.55363C7.56235 3.61079 6.88335 3.81963 6.43069 3.99579C5.83219 4.22913 5.40402 4.50563 4.95485 4.95479C4.52907 5.36902 4.2014 5.87329 3.99585 6.43063C3.81969 6.88329 3.61085 7.56229 3.55369 8.81413C3.49185 10.1675 3.47902 10.5735 3.47902 14C3.47902 17.4265 3.49185 17.8325 3.55369 19.1858C3.61085 20.4376 3.81969 21.1166 3.99585 21.5693C4.20119 22.1258 4.52902 22.631 4.95485 23.0451C5.36902 23.471 5.87419 23.7988 6.43069 24.0041C6.88335 24.1803 7.56235 24.3891 8.81419 24.4463C10.1675 24.5081 10.5724 24.521 14 24.521C17.4277 24.521 17.8325 24.5081 19.1859 24.4463C20.4377 24.3891 21.1167 24.1803 21.5694 24.0041C22.1679 23.7708 22.596 23.4943 23.0452 23.0451C23.471 22.631 23.7989 22.1258 24.0042 21.5693C24.1804 21.1166 24.3892 20.4376 24.4464 19.1858C24.5082 17.8325 24.521 17.4265 24.521 14C24.521 10.5735 24.5082 10.1675 24.4464 8.81413C24.3892 7.56229 24.1804 6.88329 24.0042 6.43063C23.7709 5.83213 23.4944 5.40396 23.0452 4.95479C22.6309 4.52904 22.1267 4.20137 21.5694 3.99579C21.1167 3.81963 20.4377 3.61079 19.1859 3.55363ZM12.3609 17.9561C13.2763 18.3372 14.2956 18.3886 15.2448 18.1016C16.1939 17.8146 17.014 17.207 17.5649 16.3826C18.1158 15.5581 18.3634 14.568 18.2654 13.5812C18.1674 12.5945 17.7299 11.6724 17.0275 10.9725C16.5798 10.525 16.0384 10.1824 15.4424 9.9693C14.8464 9.75619 14.2105 9.67788 13.5806 9.74001C12.9507 9.80214 12.3424 10.0032 11.7995 10.3286C11.2565 10.6541 10.7926 11.0958 10.4409 11.6221C10.0892 12.1484 9.85857 12.7461 9.76562 13.3722C9.67267 13.9984 9.7197 14.6373 9.90332 15.2431C10.0869 15.8488 10.4026 16.4063 10.8275 16.8755C11.2525 17.3446 11.7761 17.7137 12.3609 17.9561ZM9.33569 9.33563C9.94821 8.7231 10.6754 8.23721 11.4757 7.90571C12.276 7.57422 13.1338 7.4036 14 7.4036C14.8663 7.4036 15.724 7.57422 16.5243 7.90571C17.3246 8.23721 18.0518 8.7231 18.6644 9.33563C19.2769 9.94815 19.7628 10.6753 20.0943 11.4756C20.4258 12.2759 20.5964 13.1337 20.5964 14C20.5964 14.8662 20.4258 15.724 20.0943 16.5243C19.7628 17.3246 19.2769 18.0518 18.6644 18.6643C17.4273 19.9014 15.7495 20.5963 14 20.5963C12.2506 20.5963 10.5727 19.9014 9.33569 18.6643C8.09863 17.4272 7.40366 15.7494 7.40366 14C7.40366 12.2505 8.09863 10.5727 9.33569 9.33563ZM22.0594 8.38596C22.2111 8.24277 22.3327 8.07059 22.4167 7.8796C22.5008 7.6886 22.5456 7.48269 22.5487 7.27404C22.5517 7.0654 22.5129 6.85826 22.4344 6.6649C22.356 6.47154 22.2395 6.29589 22.092 6.14834C21.9444 6.00079 21.7688 5.88434 21.5754 5.8059C21.382 5.72745 21.1749 5.6886 20.9663 5.69164C20.7576 5.69468 20.5517 5.73956 20.3607 5.82361C20.1697 5.90765 19.9975 6.02917 19.8544 6.18096C19.5759 6.47616 19.4234 6.86827 19.4293 7.27404C19.4353 7.67982 19.5991 8.06732 19.886 8.35428C20.173 8.64123 20.5605 8.80506 20.9663 8.81097C21.372 8.81689 21.7642 8.66443 22.0594 8.38596Z" fill="#016081"/>
</svg>
