<svg width="343" height="203" viewBox="0 0 343 203" fill="none" xmlns="http://www.w3.org/2000/svg">
<g filter="url(#filter0_d)">
<path fill-rule="evenodd" clip-rule="evenodd" d="M181.781 14.9236C181.781 9.44296 186.224 5 191.704 5H359.436C364.916 5 369.359 9.44296 369.359 14.9236C369.359 20.4043 364.916 24.8472 359.436 24.8472H263.239V31.0107H505.777C513.08 31.0107 519 36.9311 519 44.2341C519 51.5372 513.08 57.4576 505.777 57.4576H325.929V69.7344H450.652C456.133 69.7344 460.577 74.1781 460.577 79.6598C460.577 85.1415 456.133 89.5853 450.652 89.5853H332.933V109.477H381.781C389.084 109.477 395.005 115.397 395.005 122.7C395.005 130.003 389.084 135.923 381.781 135.923H372.685V141.553H459.978C467.281 141.553 473.201 147.473 473.201 154.776C473.201 162.079 467.281 168 459.978 168H154.396C147.093 168 141.173 162.079 141.173 154.776C141.173 147.473 147.093 141.553 154.396 141.553H215.891V135.923H74.4873C67.1842 135.923 61.2639 130.003 61.2639 122.7C61.2639 115.397 67.1842 109.477 74.4873 109.477H148.075V99.0434H127.064C118.328 99.0434 111.245 91.9607 111.245 83.2239C111.245 74.487 118.328 67.4043 127.064 67.4043H190.61V57.4576H33.2234C25.9203 57.4576 20 51.5372 20 44.2341C20 36.9311 25.9203 31.0107 33.2234 31.0107H208.89V24.8472H191.704C186.224 24.8472 181.781 20.4043 181.781 14.9236Z" fill="#A9BEE1" fill-opacity="0.42" shape-rendering="crispEdges"/>
</g>
<defs>
<filter id="filter0_d" x="0" y="0" width="539" height="203" filterUnits="userSpaceOnUse" color-interpolation-filters="sRGB">
<feFlood flood-opacity="0" result="BackgroundImageFix"/>
<feColorMatrix in="SourceAlpha" type="matrix" values="0 0 0 0 0 0 0 0 0 0 0 0 0 0 0 0 0 0 127 0" result="hardAlpha"/>
<feOffset dy="15"/>
<feGaussianBlur stdDeviation="10"/>
<feComposite in2="hardAlpha" operator="out"/>
<feColorMatrix type="matrix" values="0 0 0 0 0 0 0 0 0 0 0 0 0 0 0 0 0 0 0.25 0"/>
<feBlend mode="normal" in2="BackgroundImageFix" result="effect1_dropShadow"/>
<feBlend mode="normal" in="SourceGraphic" in2="effect1_dropShadow" result="shape"/>
</filter>
</defs>
</svg>
