<svg width="65" height="63" viewBox="0 0 65 63" fill="none" xmlns="http://www.w3.org/2000/svg">
<path d="M48.7499 28.875C50.6457 28.875 52.4603 29.1375 54.1666 29.6362V26.25C54.1666 23.3625 51.7291 21 48.7499 21H46.0416V15.75C46.0416 8.505 39.9749 2.625 32.4999 2.625C25.0249 2.625 18.9583 8.505 18.9583 15.75V21H16.2499C13.2708 21 10.8333 23.3625 10.8333 26.25V52.5C10.8333 55.3875 13.2708 57.75 16.2499 57.75H33.2041C31.2202 54.9966 30.0535 51.7687 29.8307 48.4173C29.608 45.066 30.3378 41.7196 31.9407 38.7423C33.5436 35.765 35.9583 33.2707 38.922 31.531C41.8858 29.7912 45.285 28.8726 48.7499 28.875ZM24.3749 15.75C24.3749 11.3925 28.0041 7.875 32.4999 7.875C36.9957 7.875 40.6249 11.3925 40.6249 15.75V21H24.3749V15.75Z" fill="white"/>
<path d="M48.7499 34.125C41.2749 34.125 35.2083 40.005 35.2083 47.25C35.2083 54.495 41.2749 60.375 48.7499 60.375C56.2249 60.375 62.2916 54.495 62.2916 47.25C62.2916 40.005 56.2249 34.125 48.7499 34.125ZM54.1666 52.5C53.6249 53.025 52.7853 53.025 52.2437 52.5L47.7749 48.1688C47.5222 47.9248 47.3766 47.5956 47.3687 47.25V40.6875C47.3687 39.9525 47.9645 39.375 48.7228 39.375C49.4812 39.375 50.077 39.9525 50.077 40.6875V46.6988L54.1395 50.6363C54.7082 51.1613 54.7082 51.975 54.1666 52.5Z" fill="white"/>
</svg>
