<svg width="128" height="60" viewBox="0 0 128 60" fill="none" xmlns="http://www.w3.org/2000/svg">
<path d="M94.7325 54.4417C82.1943 54.4417 71.9887 43.4799 71.9887 30.0093C71.9887 16.5388 82.1943 5.58068 94.7325 5.58068C107.274 5.58068 117.478 16.5388 117.478 30.0093C117.478 43.4799 107.274 54.4417 94.7325 54.4417ZM33.5113 54.4417C20.9697 54.4417 10.7693 43.4799 10.7693 30.0093C10.7693 16.5388 20.9697 5.58068 33.5113 5.58068C46.0461 5.58068 56.2533 16.5388 56.2533 30.0093C56.2533 43.4799 46.0461 54.4417 33.5113 54.4417ZM123.409 26.3474H120.988C119.309 12.3873 108.18 1.56641 94.7325 1.56641C82.381 1.56641 71.9801 10.6963 69.0682 23.0061C67.7142 21.8287 65.992 21.1205 64.1176 21.1205C62.2501 21.1205 60.5296 21.8287 59.1791 23.0024C56.2654 10.6945 45.8645 1.56641 33.5113 1.56641C20.0636 1.56641 8.93468 12.3873 7.25566 26.3474H4.43193C2.54368 26.3474 1.01855 27.9883 1.01855 30.0112C1.01855 32.0378 2.54368 33.6769 4.43193 33.6769H7.25566C8.93814 47.635 20.0653 58.4578 33.5113 58.4578C48.1141 58.4578 59.9935 45.6937 59.9935 30.0093C59.9935 29.8629 59.9849 29.7164 59.9831 29.568H59.9935C59.9935 27.1242 61.8437 25.1347 64.1176 25.1347C66.4018 25.1347 68.2537 27.1242 68.2537 29.568H68.2641C68.2607 29.7164 68.2537 29.8629 68.2537 30.0093C68.2537 45.6937 80.1314 58.4578 94.7325 58.4578C108.178 58.4578 119.306 47.635 120.988 33.6769H123.409C125.292 33.6769 126.815 32.0378 126.815 30.0112C126.815 27.9883 125.292 26.3474 123.409 26.3474Z" fill="#272727"/>
<path d="M94.7325 54.4417V53.7204C88.6476 53.7204 83.1333 51.0615 79.1337 46.7673C75.1376 42.4693 72.6614 36.5471 72.6614 30.0093C72.6614 23.4734 75.1376 17.5493 79.1337 13.2551C83.1333 8.9608 88.6476 6.30378 94.7325 6.30193C100.819 6.30378 106.334 8.9608 110.333 13.2551C114.333 17.5512 116.805 23.4734 116.805 30.0093C116.805 36.5471 114.333 42.4693 110.333 46.7673C106.334 51.0615 100.819 53.7204 94.7325 53.7204V55.1648C107.646 55.1629 118.149 43.8803 118.151 30.0093C118.149 16.1401 107.646 4.85939 94.7325 4.85753C81.8208 4.85939 71.3179 16.1401 71.3162 30.0093C71.3179 43.8803 81.8208 55.1629 94.7325 55.1648V54.4417ZM33.5114 54.4417V53.7204C27.4247 53.7204 21.9104 51.0615 17.9108 46.7673C13.9147 42.4693 11.442 36.5471 11.442 30.0093C11.442 23.4734 13.9147 17.5493 17.9108 13.2551C21.9104 8.9608 27.4247 6.30378 33.5114 6.30193C39.5946 6.30378 45.1072 8.9608 49.1085 13.2551C53.1063 17.5512 55.5807 23.4734 55.5807 30.0093C55.5807 36.5471 53.1063 42.4693 49.1085 46.7673C45.1072 51.0615 39.5946 53.7204 33.5114 53.7204V55.1648C46.4179 55.1629 56.926 43.8803 56.926 30.0093C56.926 16.1401 46.4179 4.85939 33.5114 4.85753C20.5962 4.85939 10.0967 16.1401 10.095 30.0093C10.0967 43.8803 20.5962 55.1629 33.5114 55.1648V54.4417ZM123.409 26.3473V25.6242H120.988V26.3473L121.656 26.2546C120.795 19.0957 117.509 12.7415 112.719 8.1802C107.931 3.61895 101.627 0.843262 94.7325 0.843262C88.4021 0.843262 82.5661 3.18507 77.9441 7.10293C73.322 11.0208 69.9103 16.5147 68.4163 22.8263L69.0682 23.0061L69.4902 22.4443C68.0256 21.1668 66.1511 20.3992 64.1176 20.3992C62.0893 20.3992 60.2201 21.1668 58.7555 22.4425L59.1791 23.0024L59.831 22.8244C58.337 16.5128 54.9237 11.0189 50.3016 7.10107C45.6795 3.18322 39.8436 0.843262 33.5114 0.843262C26.6172 0.843262 20.3127 3.61895 15.5229 8.1802C10.7331 12.7415 7.44938 19.0957 6.58826 26.2546L7.25572 26.3473V25.6242H4.43199C2.1737 25.6242 0.345967 27.5896 0.344238 30.0112C0.345967 32.4383 2.1737 34.4 4.43199 34.4H7.25572V33.6768L6.58826 33.7714C7.45284 40.9285 10.7365 47.2809 15.5263 51.8421C20.3161 56.4052 26.6189 59.1809 33.5114 59.1809C48.4877 59.1791 60.6662 46.0942 60.6662 30.0093C60.6662 29.8313 60.6576 29.6811 60.6558 29.5569L59.9832 29.568V30.2893H60.6662V29.568C60.6662 28.5445 61.0536 27.6193 61.6778 26.9462C62.3055 26.2713 63.1649 25.856 64.1176 25.856C65.0756 25.856 65.9367 26.2732 66.5661 26.9462C67.1938 27.6193 67.5812 28.5445 67.5812 29.568V30.2893H68.2642V29.568L67.5915 29.5569C67.5898 29.6811 67.5812 29.8313 67.5812 30.0093C67.5812 46.0942 79.7597 59.1791 94.7325 59.1809C101.625 59.1809 107.928 56.4052 112.718 51.8421C117.507 47.2809 120.793 40.9285 121.654 33.7714L120.988 33.6768V34.4H123.409C124.535 34.4018 125.558 33.9086 126.295 33.115C127.032 32.3233 127.488 31.2219 127.486 30.0112C127.486 27.5915 125.664 25.6242 123.409 25.6242V27.0705C124.166 27.0705 124.846 27.3968 125.342 27.9308C125.837 28.4648 126.143 29.1972 126.143 30.0112C126.143 30.8288 125.837 31.5594 125.342 32.0952C124.846 32.6274 124.166 32.9556 123.409 32.9556H120.395L120.321 33.586C119.501 40.3852 116.382 46.4224 111.825 50.7611C107.269 55.0999 101.286 57.7365 94.7325 57.7365C87.617 57.7365 81.1689 54.6271 76.4933 49.6041C71.8193 44.5831 68.9264 37.654 68.9264 30.0093C68.9264 29.8925 68.9334 29.7497 68.9368 29.5773L68.9455 28.8449H68.2538V29.568H68.9264C68.9247 26.7237 66.7736 24.4134 64.1176 24.4116C61.4703 24.4134 59.3227 26.7256 59.3209 29.568H59.9936V28.8449H59.3019L59.3106 29.5773C59.314 29.7497 59.3209 29.8925 59.3209 30.0093C59.3209 37.654 56.428 44.5831 51.7541 49.6041C47.0784 54.6271 40.6286 57.7365 33.5114 57.7365C26.9578 57.7365 20.9749 55.0999 16.4186 50.7611C11.8639 46.4224 8.7428 40.3852 7.92318 33.586L7.84709 32.9556H4.43199C3.67115 32.9556 2.98986 32.6274 2.49186 32.0952C1.99559 31.5594 1.68953 30.827 1.68953 30.0112C1.68953 29.1972 1.99559 28.4666 2.49186 27.9326C2.98986 27.3986 3.67115 27.0705 4.43199 27.0705H7.84709L7.92318 26.44C8.74107 19.639 11.8605 13.6018 16.4168 9.26303C20.9732 4.92428 26.9561 2.28766 33.5114 2.28766C39.5323 2.28766 45.0726 4.51266 49.4681 8.23583C53.8637 11.9608 57.1076 17.1859 58.5272 23.1804L58.7849 24.2725L59.6028 23.5642C60.8409 22.4888 62.4075 21.8436 64.1176 21.8436C65.8347 21.8436 67.4065 22.4888 68.6429 23.5661L69.4608 24.2781L69.7201 23.1841C71.1381 17.1877 74.3837 11.9627 78.7775 8.23768C83.173 4.51266 88.7133 2.28766 94.7325 2.28766C101.288 2.28766 107.271 4.92428 111.827 9.26303C116.383 13.6018 119.505 19.639 120.321 26.44L120.397 27.0705H123.409V26.3473Z" fill="#272727"/>
</svg>
