<svg width="96" height="93" viewBox="0 0 96 93" fill="none" xmlns="http://www.w3.org/2000/svg">
<g clip-path="url(#clip0_647:154)">
<path d="M10.3418 45.1525C10.611 43.7054 9.86647 42.4101 8.29578 42.5327C6.16522 42.6993 4.68265 46.9953 9.21528 48.4248C12.9312 49.5969 15.6366 46.8836 19.9178 42.6969C29.4835 33.3424 41.034 32.4352 48.078 41.8785C50.9813 36.703 62.4255 28.0756 79.8998 45.9712C86.319 52.5451 92.0547 46.3628 88.9123 42.9699C87.4828 41.4265 84.6889 43.5819 86.0959 45.1525H85.8141C79.2557 39.518 92.955 34.253 95.6697 43.7884C98.4747 58.1411 82.846 60.4743 70.3258 55.2458C46.1277 43.514 45.8695 46.6656 22.4505 56.3372C15.2633 59.1914 6.46109 57.5606 2.90797 54.2604C-1.31209 50.3409 -1.0511 41.0268 4.42728 39.15C10.0185 36.9773 14.7488 41.6289 10.3418 45.1525Z" fill="black"/>
</g>
<defs>
<clipPath id="clip0_647:154">
<rect width="96" height="93" fill="white"/>
</clipPath>
</defs>
</svg>
